# xmcd
# 
# Track frame offsets:
#     150
#     18532
#     40547
#     53332
#     71025
#     88442
#     113200
#     141492
#     153200
#     174042
#     200342
#     236290
#     251085
#     270537
#     296287
# 
# Disc length: 4119
# 
# Revision: 2
# Processed by: cddbd v1.5.2PL0 Copyright (c) Steve Scherf et al.
# Submitted via: BonkEnc v1.0.15
# 
DISCID=c710150f
DTITLE=Various Artist - YOUR SONGII Disc 4
DYEAR=2001
DGENRE=Rock
TTITLE0=Wet wet wet - Love is all around
TTITLE1=Marvin Gaye - Let's get it on
TTITLE2=Dusty Springfield - You don't have to say you love me
TTITLE3=Shanice - Lovin' you
TTITLE4=Irene Cara - Flashdance... What a feeling '95
TTITLE5=Styx - Mr.Roboto
TTITLE6=Tear for fears - Sowing the seeds of love
TTITLE7=Sergio Mendes and Brasil '66 - Mais que nada
TTITLE8=38special - Caught up un you
TTITLE9=The Commodores - Still
TTITLE10=Jermaine Jackson - Let's get serious
TTITLE11=Cat Steevens - Morning gas broken
TTITLE12=The Moody Blues - Nights in white satin
TTITLE13=Peaches and Herb - Reunited
TTITLE14=Stevie Wonder - A place in the sun
EXTD=
EXTT0=
EXTT1=
EXTT2=
EXTT3=
EXTT4=
EXTT5=
EXTT6=
EXTT7=
EXTT8=
EXTT9=
EXTT10=
EXTT11=
EXTT12=
EXTT13=
EXTT14=
PLAYORDER=
